<svg xmlns="http://www.w3.org/2000/svg" xmlns:xlink="http://www.w3.org/1999/xlink" width="1009.536" height="813.163" viewBox="0 0 1009.536 813.163">
  <defs>
    <linearGradient id="linear-gradient" x1="0.5" y1="1" x2="0.5" gradientUnits="objectBoundingBox">
      <stop offset="0" stop-color="gray" stop-opacity="0.251"/>
      <stop offset="0.54" stop-color="gray" stop-opacity="0.122"/>
      <stop offset="1" stop-color="gray" stop-opacity="0.102"/>
    </linearGradient>
  </defs>
  <g id="librairies" transform="translate(0 0)">
    <path id="Tracé_1390" data-name="Tracé 1390" d="M688.44,180.84c-64.72-2.25-126.37-23.14-185.23-46S386.05,86.65,322.88,74.54c-40.63-7.79-87.1-8.89-119.83,12.89-31.51,21-41.69,57.15-47.16,90.73-4.12,25.26-6.54,51.84,4.75,75.49,7.83,16.42,21.74,30.22,31.35,46,33.47,54.72,9.82,122.2-26.45,175.63-17,25.07-36.75,49-49.87,75.66s-19.2,57.25-7.72,84.47c11.39,27,38.52,47.24,67.9,61.49,59.69,28.95,130,37.23,198.61,41.92,151.83,10.39,304.46,5.89,456.69,1.39,56.34-1.67,112.92-3.36,168.34-12.07,30.78-4.84,62.55-12.51,84.9-31.05,28.36-23.53,35.39-63.38,16.39-92.88-31.89-49.49-120-61.78-142.32-114.9-12.26-29.23.34-61.79,18.16-88.91,38.24-58.16,102.33-109.19,105.71-175.67,2.32-45.67-28.5-91.39-76.14-113C956.26,89,887,91.88,850.18,129.37,812.24,168,745.58,182.82,688.44,180.84Z" transform="translate(-101.886 -43.427)" fill="#6c63ff" opacity="0.1"/>
    <path id="Tracé_1391" data-name="Tracé 1391" d="M435.45,690.5,93.17,688.83,59.16,609.06l120.26-8.73-20.96-87.46,237.86-30.83L168.55,402.86l20.12-4.78,366.25,59.75L534.75,594.32l-28.83,75.01Z" transform="translate(-13.306 -0.008)" fill="#6c63ff"/>
    <path id="Tracé_1392" data-name="Tracé 1392" d="M187,698.84s21-3.36,33.6,11.48c0,0-9.24,7.28-29.12-2.8Z" transform="translate(-101.886 -43.427)" fill="#6c63ff"/>
    <path id="Tracé_1393" data-name="Tracé 1393" d="M184.8,698.51S171.4,715,178,733.36c0,0,10.92-4.37,12.11-26.63Z" transform="translate(-101.886 -43.427)" fill="#6c63ff"/>
    <path id="Tracé_1394" data-name="Tracé 1394" d="M172.76,671.4s8.4-15.41,42,6.16c0,0-4.48,10.36-19.32,9.52S176.68,679.52,172.76,671.4Z" transform="translate(-101.886 -43.427)" fill="#6c63ff"/>
    <path id="Tracé_1395" data-name="Tracé 1395" d="M170.59,670.29s-17.43-2-19.12,37.9c0,0,11.05,2.29,18.9-10.33S175,678.16,170.59,670.29Z" transform="translate(-101.886 -43.427)" fill="#6c63ff"/>
    <path id="Tracé_1402" data-name="Tracé 1402" d="M156.38,423.04Z" transform="translate(-101.886 -43.427)" fill="#6c63ff"/>
    <path id="Tracé_1428" data-name="Tracé 1428" d="M719.31,670.36s-22.67,27.67-4.67,69.5l-181,78.5L516.27,822l-8-35,5.35-44.17V718.69Z" transform="translate(-101.886 -43.427)" fill="#d5d6db"/>
    <path id="Tracé_1429" data-name="Tracé 1429" d="M59.16,609.06l250.52-45.67,331.95,52.88L435.45,690.5Z" transform="translate(-13.306 -0.008)" fill="#6c63ff"/>
    <path id="Tracé_1430" data-name="Tracé 1430" d="M59.16,609.06l250.52-45.67,331.95,52.88L435.45,690.5Z" transform="translate(-13.306 -0.008)" fill="#6c63ff"/>
    <path id="Tracé_1431" data-name="Tracé 1431" d="M147.74,652.47s-23.43,44.39,3.57,85.39l371.5,80.5S499.75,783,524,733.92Z" transform="translate(-101.886 -43.427)" fill="#6c63ff"/>
    <path id="Tracé_1432" data-name="Tracé 1432" d="M147.74,652.47s-23.43,44.39,3.57,85.39l371.5,80.5S499.75,783,524,733.92Z" transform="translate(-101.886 -43.427)" opacity="0.1"/>
    <path id="Tracé_1433" data-name="Tracé 1433" d="M158.81,667.86s-13.39,32.48,0,53.5" transform="translate(-101.886 -43.427)" opacity="0.1"/>
    <path id="Tracé_1434" data-name="Tracé 1434" d="M522.81,818.36l207.4-88.5s11.6,2.5,4.1,11-207.5,86-207.5,86l-375.5-89Z" transform="translate(-101.886 -43.427)" fill="#6c63ff"/>
    <path id="Tracé_1435" data-name="Tracé 1435" d="M522.81,818.36l207.4-88.5s11.6,2.5,4.1,11-207.5,86-207.5,86l-375.5-89Z" transform="translate(-101.886 -43.427)" opacity="0.1"/>
    <path id="Tracé_1436" data-name="Tracé 1436" d="M505.81,742.86s-20,24,0,60" transform="translate(-101.886 -43.427)" opacity="0.1"/>
    <rect id="Rectangle_1" data-name="Rectangle 1" width="94.57" height="1" transform="translate(411.044 728.952) rotate(-18.45)" opacity="0.1"/>
    <rect id="Rectangle_2" data-name="Rectangle 2" width="115.23" height="1" transform="translate(411.011 737.013) rotate(-20.82)" opacity="0.1"/>
    <rect id="Rectangle_3" data-name="Rectangle 3" width="133.56" height="1" transform="translate(411.614 746.507) rotate(-22.26)" opacity="0.1"/>
    <rect id="Rectangle_4" data-name="Rectangle 4" width="153.74" height="1" transform="translate(413.055 754.871) rotate(-24.31)" opacity="0.1"/>
    <rect id="Rectangle_5" data-name="Rectangle 5" width="168.15" height="1" transform="matrix(0.916, -0.401, 0.401, 0.916, 414.167, 758.942)" opacity="0.1"/>
    <rect id="Rectangle_6" data-name="Rectangle 6" width="201.22" height="1" transform="translate(416.492 765.776) rotate(-23.36)" opacity="0.1"/>
    <path id="Tracé_1437" data-name="Tracé 1437" d="M152.23,613.94l176-37,107.22,20.5-144.22,46.5Z" transform="translate(-13.306 -0.008)" fill="#fff" opacity="0.3"/>
    <path id="Tracé_1438" data-name="Tracé 1438" d="M730.21,659.69s9.1,3.67,3.76,9.34S524,733.92,524,733.92Z" transform="translate(-101.886 -43.427)" fill="#6c63ff"/>
    <path id="Tracé_1439" data-name="Tracé 1439" d="M818.6,574.18s-22.66,27.66-4.66,69.5l-181,78.5-17.37,3.66-8-35L613,646.68V622.51Z" transform="translate(-101.886 -43.427)" fill="#d5d6db"/>
    <path id="Tracé_1440" data-name="Tracé 1440" d="M158.46,512.87l250.51-45.66,331.96,52.88L534.75,594.32Z" transform="translate(-13.306 -0.008)" fill="#3a3768"/>
    <path id="Tracé_1441" data-name="Tracé 1441" d="M247,556.29s-23.44,44.39,3.56,85.39l371.5,80.5s-23.05-35.39,1.23-84.45Z" transform="translate(-101.886 -43.427)" fill="#3a3768"/>
    <path id="Tracé_1442" data-name="Tracé 1442" d="M247,556.29s-23.44,44.39,3.56,85.39l371.5,80.5s-23.05-35.39,1.23-84.45L505.81,612.3Z" transform="translate(-101.886 -43.427)" opacity="0.1"/>
    <path id="Tracé_1443" data-name="Tracé 1443" d="M258.1,571.68s-13.38,32.47,0,53.5" transform="translate(-101.886 -43.427)" opacity="0.1"/>
    <path id="Tracé_1444" data-name="Tracé 1444" d="M622.1,722.18l207.41-88.5s11.59,2.5,4.09,11-207.5,86-207.5,86l-375.5-89Z" transform="translate(-101.886 -43.427)" fill="#3a3768"/>
    <path id="Tracé_1445" data-name="Tracé 1445" d="M622.1,722.18l207.41-88.5s11.59,2.5,4.09,11-207.5,86-207.5,86l-375.5-89Z" transform="translate(-101.886 -43.427)" opacity="0.1"/>
    <path id="Tracé_1446" data-name="Tracé 1446" d="M605.1,646.68s-20,24,0,60" transform="translate(-101.886 -43.427)" opacity="0.1"/>
    <rect id="Rectangle_7" data-name="Rectangle 7" width="94.57" height="1" transform="translate(510.342 632.782) rotate(-18.45)" opacity="0.1"/>
    <rect id="Rectangle_8" data-name="Rectangle 8" width="115.23" height="1" transform="translate(510.322 640.839) rotate(-20.82)" opacity="0.1"/>
    <rect id="Rectangle_9" data-name="Rectangle 9" width="133.56" height="1" transform="translate(510.909 650.32) rotate(-22.26)" opacity="0.1"/>
    <rect id="Rectangle_10" data-name="Rectangle 10" width="153.74" height="1" transform="translate(512.362 658.686) rotate(-24.31)" opacity="0.1"/>
    <rect id="Rectangle_11" data-name="Rectangle 11" width="168.15" height="1" transform="matrix(0.916, -0.401, 0.401, 0.916, 513.459, 662.744)" opacity="0.1"/>
    <rect id="Rectangle_12" data-name="Rectangle 12" width="201.22" height="1" transform="translate(515.792 669.577) rotate(-23.36)" opacity="0.1"/>
    <path id="Tracé_1447" data-name="Tracé 1447" d="M251.53,517.76l176-37,107.22,20.5-144.22,46.5Z" transform="translate(-13.306 -0.008)" fill="#fff" opacity="0.45"/>
    <path id="Tracé_1448" data-name="Tracé 1448" d="M829.51,563.51s9.09,3.67,3.76,9.33-209.94,64.89-209.94,64.89Z" transform="translate(-101.886 -43.427)" fill="#3a3768"/>
    <path id="Tracé_1449" data-name="Tracé 1449" d="M828,464.15s-22.67,49.67-4.67,91.5l-181,56.5L625,615.82l-8-35,5.35-44.17V512.48Z" transform="translate(-101.886 -43.427)" fill="#d5d6db"/>
    <path id="Tracé_1450" data-name="Tracé 1450" d="M167.89,402.85l250.52-45.67,331.96,52.88L544.18,484.29Z" transform="translate(-13.306 -0.008)" fill="#6c63ff"/>
    <path id="Tracé_1451" data-name="Tracé 1451" d="M256.47,446.26S233,490.65,260,531.65l371.5,80.5s-23.06-35.39,1.22-84.44Z" transform="translate(-101.886 -43.427)" fill="#6c63ff"/>
    <path id="Tracé_1452" data-name="Tracé 1452" d="M256.47,446.26S233,490.65,260,531.65l371.5,80.5s-23.06-35.39,1.22-84.44Z" transform="translate(-101.886 -43.427)" opacity="0.1"/>
    <path id="Tracé_1453" data-name="Tracé 1453" d="M267.54,461.65s-13.39,32.48,0,53.5" transform="translate(-101.886 -43.427)" opacity="0.1"/>
    <path id="Tracé_1454" data-name="Tracé 1454" d="M631.54,612.15l207.4-66.5s11.6,2.5,4.1,11-207.5,64-207.5,64l-375.5-89Z" transform="translate(-101.886 -43.427)" fill="#6c63ff"/>
    <path id="Tracé_1455" data-name="Tracé 1455" d="M631.54,612.15l207.4-66.5s11.6,2.5,4.1,11-207.5,64-207.5,64l-375.5-89Z" transform="translate(-101.886 -43.427)" opacity="0.1"/>
    <path id="Tracé_1456" data-name="Tracé 1456" d="M614.54,536.65s-20,24,0,60" transform="translate(-101.886 -43.427)" opacity="0.1"/>
    <rect id="Rectangle_13" data-name="Rectangle 13" width="94.57" height="1" transform="translate(519.784 522.75) rotate(-18.45)" opacity="0.1"/>
    <rect id="Rectangle_14" data-name="Rectangle 14" width="115.23" height="1" transform="translate(519.758 530.813) rotate(-20.82)" opacity="0.1"/>
    <rect id="Rectangle_15" data-name="Rectangle 15" width="133.56" height="1" transform="translate(520.336 540.298) rotate(-22.26)" opacity="0.1"/>
    <rect id="Rectangle_16" data-name="Rectangle 16" width="153.74" height="1" transform="translate(521.803 548.655) rotate(-24.31)" opacity="0.1"/>
    <rect id="Rectangle_17" data-name="Rectangle 17" width="168.15" height="1" transform="matrix(0.916, -0.401, 0.401, 0.916, 522.905, 552.723)" opacity="0.1"/>
    <rect id="Rectangle_18" data-name="Rectangle 18" width="201.22" height="1" transform="translate(525.234 559.563) rotate(-23.36)" opacity="0.1"/>
    <path id="Tracé_1457" data-name="Tracé 1457" d="M260.96,407.73l176-37,107.22,20.5-144.22,46.5Z" transform="translate(-13.306 -0.008)" fill="#fff" opacity="0.3"/>
    <path id="Tracé_1458" data-name="Tracé 1458" d="M838.94,453.48s9.1,3.67,3.76,9.34-209.94,64.89-209.94,64.89Z" transform="translate(-101.886 -43.427)" fill="#6c63ff"/>
    <ellipse id="Ellipse_1" data-name="Ellipse 1" cx="22.99" cy="2.57" rx="22.99" ry="2.57" transform="translate(165.654 779.012)" fill="#6c63ff" opacity="0.1"/>
    <ellipse id="Ellipse_2" data-name="Ellipse 2" cx="22.99" cy="2.57" rx="22.99" ry="2.57" transform="translate(14.944 735.333)" fill="#6c63ff" opacity="0.1"/>
    <ellipse id="Ellipse_3" data-name="Ellipse 3" cx="22.99" cy="2.57" rx="22.99" ry="2.57" transform="translate(280.534 808.022)" fill="#6c63ff" opacity="0.1"/>
    <ellipse id="Ellipse_4" data-name="Ellipse 4" cx="22.99" cy="2.57" rx="22.99" ry="2.57" transform="translate(869.234 744.833)" fill="#6c63ff" opacity="0.1"/>
    <ellipse id="Ellipse_5" data-name="Ellipse 5" cx="22.99" cy="2.57" rx="22.99" ry="2.57" transform="translate(677.924 732.363)" fill="#6c63ff" opacity="0.1"/>
    <ellipse id="Ellipse_6" data-name="Ellipse 6" cx="27.19" cy="4.67" rx="27.19" ry="4.67" transform="translate(549.964 788.982)" fill="#6c63ff" opacity="0.1"/>
    <path id="Tracé_1465" data-name="Tracé 1465" d="M803.54,420.71C797,402.94,761,401.27,745.38,405.8c-11.1,3.23-34.5,6.87-47,8.7l-.81-.77c1.62-.48,1.66-1.66,1.46-3.41a53.358,53.358,0,0,1,.1-6.92c7.66,2.38,14.48-3.25,14.48-3.25h0c9-4,6.58-21.12,8.3-25.8,1.29-3.5,2.68-24.12,3.3-34.4h.13l.07-3.45c.09-1.49.13-2.36.13-2.36s.88-25.14,2.6-30.23c1.6-4.68,2.9-28.26,3.1-32v-.49l-.13-2.18c.09-1.59.13-3.36.12-5.22,0-8.55-.89-19.32-1-21.06v-.91c.07-3.65-.39-21.93-15.94-28.84-5.73-2.56-12.62-5.61-19.29-8.58-1.72-14.85-5.65-29.62-5.31-44.58,0-2.25.2-4.5.42-6.74,0,.65-.07,1.31-.08,2v4.36c.59-18.71,7.66-37.52,7-55.83-.06,1.79-.19,3.59-.36,5.39a58.129,58.129,0,0,0-1.92-18.39c-.6-2.11-1.41-4.29-3.14-5.7a12.93,12.93,0,0,0-5.48-2.17,110.21,110.21,0,0,0-14.39-2.68A22.22,22.22,0,0,0,668.5,74c-10.14-13.92-25.16-27-42.92-30-8.91-1.5-19.16-.25-25.22,6.12a18.918,18.918,0,0,0-1.78,1.8c-3.26,3.89-4.66,9-8,12.88-.22.26-.47.5-.71.75-6.54,5.85-16.73,7.07-24,12.32A28.811,28.811,0,0,0,562.28,81a60.877,60.877,0,0,0-7.84,9.53c-3.27,4.6-6.63,9.39-7.67,14.88-2.09,11,5.4,21.43,6.79,32.5,3.1,24.77-24.31,46.75-19.12,71.19a32.6,32.6,0,0,0,8.82,15.83C532.57,234.61,523.47,244,523.47,244v.56h-1.69l.17,2h-.17l.93,10.85-.93,15.8v1.49h.06c.31,5.79,1.54,26.61,3,31,1.72,5.09,2.59,30.23,2.59,30.23s1.9,35.53,3.64,40.23-.73,21.77,8.3,25.8h0a19,19,0,0,0,9.07,3.76c-.46,3.74-.17,6.45,1.32,7.3a4.36,4.36,0,0,0,2.1.6,22.288,22.288,0,0,0-1.63,2.85A42.359,42.359,0,0,1,539.75,414c-9.7-4-41.89-13-51.24-6.67s-31.85,12.07-21.46,37.55S482.28,471,482.28,471a37,37,0,0,1,8.31,8.35c3.12,4.69,32.19,15.42,39.46,15.42a71.185,71.185,0,0,1,9.25.46s-7.89,6.92-6.84,10.94-2.4,36.2-2.4,36.2,8,8.06,11.42-2.51l.12.16c.64.87,4.1,4.8,10.61-.16a59.481,59.481,0,0,1,8.46-5.36l31.52-4.46a89.218,89.218,0,0,1,9.87-.07c5,.41,9.91-2.55,13-4.84,6.53,2.48,13.87,5.19,17.36,6.18,7.08,2,39.62,10.73,47.23,8a10.57,10.57,0,0,0,4.1-2.92l7.26.23-3.4.68s6.62.11,15.62.23l-.38.22,11.29-.1c16.52.15,35.08.2,37.52-.35,3.82-.85,23.67-.25,29.52,0h1.63s21.81-4.35,12.81-26.48c-6.92-17-28.19-21.94-37.63-23.3,2.66-.53,4.95-.94,6.47-1.18,6.59-1,19.39-7,20.43-9.05s11.77-8,14.54-11.39S810.11,438.48,803.54,420.71ZM622.89,470.44l-1.07.35-.72.24-1.38,1.36c-1.1-.74-2.28-1.52-3.51-2.32C618.38,470.2,620.61,470.33,622.89,470.44Zm95.31,28.18Z" transform="translate(-101.886 -43.427)" fill="url(#linear-gradient)"/>
    <path id="Tracé_1466" data-name="Tracé 1466" d="M686.65,365s15.3,40,24,36,6.34-21,8-25.66,3.5-40,3.5-40,.84-25,2.5-30.06c1.54-4.65,2.79-28.1,3-31.79V273L726,244l-9.34-2.33-21.66,8-3,17.13-1.17,6.69-.5,2.85Z" transform="translate(-101.886 -43.427)" fill="#be6f72"/>
    <path id="Tracé_1467" data-name="Tracé 1467" d="M691.69,358.3s14.6,11.95,19,13,7.1,10.37,7.1,10.37" transform="translate(-101.886 -43.427)" opacity="0.1"/>
    <path id="Tracé_1468" data-name="Tracé 1468" d="M567,366.75s-15.3,40-24,36-6.34-21-8-25.66-3.5-40-3.5-40-.84-25-2.5-30.06c-1.54-4.65-2.79-28.1-3-31.79v-.49l1.66-29,9.34-2.33,21.66,8,3,17.13,1.17,6.69.5,2.85Z" transform="translate(-101.886 -43.427)" fill="#be6f72"/>
    <rect id="Rectangle_19" data-name="Rectangle 19" width="34.15" height="53.23" transform="translate(530.594 109.262)" fill="#3e373a"/>
    <rect id="Rectangle_20" data-name="Rectangle 20" width="34.15" height="53.23" transform="translate(530.594 109.262)" opacity="0.1"/>
    <path id="Tracé_1469" data-name="Tracé 1469" d="M561,406.59s-11.67,12.83-7.34,15.16,32.34,46,32.34,46,92,11.33,109.35-5.67,17-47.37,17-47.37-13.94,3-15.46,1.37-9.87-9.49-9.87-9.49S569,399.43,561,406.59Z" transform="translate(-101.886 -43.427)" fill="#4b4b5b"/>
    <path id="Tracé_1470" data-name="Tracé 1470" d="M561,406.59s-11.67,12.83-7.34,15.16,32.34,46,32.34,46,92,11.33,109.35-5.67,17-47.37,17-47.37-13.94,3-15.46,1.37-9.87-9.49-9.87-9.49S569,399.43,561,406.59Z" transform="translate(-101.886 -43.427)" opacity="0.02"/>
    <path id="Tracé_1471" data-name="Tracé 1471" d="M726.62,244.42l-30,24-9.07.66-3.33.24-55.93,4.1-58-4.24-8.63-.63-11-.8-23-22s16.28-17.44,30.54-29.21c5.62-4.65,10.93-8.41,14.8-9.89l.66-.23A16.46,16.46,0,0,0,580,202c11.26-11.61,21.67-40.26,21.67-40.26s49.67-25.66,43.67,8,22.33,25.34,22.33,25.34l9.34,4.26,3.69,1.69,9.41,4.31,21.23,9.74C728,222.75,726.62,244.42,726.62,244.42Z" transform="translate(-101.886 -43.427)" fill="#be6f72"/>
    <circle id="Ellipse_7" data-name="Ellipse 7" cx="44.67" cy="44.67" r="44.67" transform="translate(479.404 56.382)" opacity="0.1"/>
    <path id="Tracé_1472" data-name="Tracé 1472" d="M726.69,276.24H526v-.49l1.66-29s16.28-17.44,30.54-29.21l126-5,5.86-6.18,21.23,9.74c16.67,7.66,15.33,29.33,15.33,29.33S728.9,270.54,726.69,276.24Z" transform="translate(-101.886 -43.427)" opacity="0.1"/>
    <path id="Tracé_1473" data-name="Tracé 1473" d="M726.69,275.24H526v-.49l1.66-29s16.28-17.44,30.54-29.21l126-5,5.86-6.18,21.23,9.74c16.67,7.66,15.33,29.33,15.33,29.33S728.9,269.54,726.69,275.24Z" transform="translate(-101.886 -43.427)" fill="#e7c7ca"/>
    <path id="Tracé_1474" data-name="Tracé 1474" d="M593.79,193.92s31.66,40.34,73.83-.83,4.67,91.83,4.67,91.83l-91,10.8Z" transform="translate(-101.886 -43.427)" opacity="0.1"/>
    <path id="Tracé_1475" data-name="Tracé 1475" d="M593.79,195.92s31.66,40.34,73.83-.83,4.67,91.83,4.67,91.83l-91,10.8Z" transform="translate(-101.886 -43.427)" fill="#e7c7ca"/>
    <path id="Tracé_1476" data-name="Tracé 1476" d="M680.65,203,684,254.09l3.59,17,2.74,13s7,100,5,105,1,9,1.42,11.66-.42,9.34-.09,12.34,0,4.33-7.66,3.26-18.34-2.93-18.34-2.93-27,2-36.33-1.33-27-3.34-27-3.34-26.67.67-35.33-.33-13.34,10.67-19,7.33,6.66-35.66,10.66-45-5.33-33-5.33-33l12-66.57L573,256.09V208.65l.66-.23A16.46,16.46,0,0,0,580,204l3,47.74,94,3.34V201.35" transform="translate(-101.886 -43.427)" opacity="0.1"/>
    <path id="Tracé_1477" data-name="Tracé 1477" d="M680.65,201,684,252.09l3.59,17,2.74,13s7,100,5,105,1,9,1.42,11.66-.42,9.34-.09,12.34,0,4.33-7.66,3.26-18.34-2.93-18.34-2.93-27,2-36.33-1.33-27-3.34-27-3.34-26.67.67-35.33-.33-13.34,10.67-19,7.33,6.66-35.66,10.66-45-5.33-33-5.33-33l12-66.57L573,254.09V206.65l.66-.23A16.46,16.46,0,0,0,580,202l3,47.74,94,3.34V199.35" transform="translate(-101.886 -43.427)" fill="#e7c7ca"/>
    <path id="Tracé_1478" data-name="Tracé 1478" d="M691.46,94.38c-.57-2.09-1.36-4.26-3-5.66a12.28,12.28,0,0,0-5.28-2.16A104.323,104.323,0,0,0,669.3,83.9a22.218,22.218,0,0,0-3-6.23c-9.8-13.84-24.3-26.89-41.36-29.84-8.93-1.55-19.28-.16-25,6.88-3.14,3.87-4.49,9-7.66,12.8-6.11,7.38-17.14,8.29-24.84,14-4.11,3-7.09,7.35-10,11.57-3.15,4.57-6.39,9.33-7.39,14.79-2,10.91,5.21,21.31,6.54,32.32,3,24.63-23.4,46.48-18.41,70.78,2.91,14.17,16,24.15,29.54,29.21,4.77,1.79,10.22,3.57,12.45,8.15,1,2,1.17,4.31,2.11,6.33,3.16,6.74,13.55,7,19.13,2.09s7.34-12.85,8-20.26c2.68-32.36-10.28-64.33-8.77-96.77.45-9.81,3.21-20.94,12-25.38,11.83-6,26.06,4,39.08,2.09a77.531,77.531,0,0,1,3.74,47.31c-2.07,8.63-5.65,17-5.91,25.9-.39,13.55,6.92,25.93,13.24,37.91a20.17,20.17,0,0,1,2.67,7.31,17.619,17.619,0,0,1-1.43,7.65c-3.57,9.61-9.73,18.53-10.43,28.76a4.65,4.65,0,0,0,.75,3.42,4.3,4.3,0,0,0,2.58,1.16c10.8,1.85,20.14-7.72,25.41-17.33A81.24,81.24,0,0,0,692.36,224c1.09-20.36-6.21-40.39-5.76-60.77C687.12,140.06,697.59,116.73,691.46,94.38Z" transform="translate(-101.886 -43.427)" opacity="0.1"/>
    <path id="Tracé_1479" data-name="Tracé 1479" d="M692.46,93.38c-.57-2.09-1.36-4.26-3-5.66a12.28,12.28,0,0,0-5.28-2.16A104.32,104.32,0,0,0,670.3,82.9a22.22,22.22,0,0,0-3-6.23c-9.8-13.84-24.3-26.89-41.36-29.84-8.93-1.55-19.28-.16-25,6.88-3.14,3.87-4.49,9-7.66,12.8-6.11,7.38-17.14,8.29-24.84,14-4.11,3-7.09,7.35-10,11.57-3.15,4.57-6.39,9.33-7.39,14.79-2,10.91,5.21,21.31,6.54,32.32,3,24.63-23.4,46.48-18.41,70.78,2.91,14.17,16,24.15,29.54,29.21,4.77,1.79,10.22,3.57,12.45,8.15,1,2,1.17,4.31,2.11,6.33,3.16,6.74,13.55,7,19.13,2.09s7.34-12.85,8-20.26c2.68-32.36-10.28-64.33-8.77-96.77.45-9.81,3.21-20.94,12-25.38,11.83-6,26.06,4,39.08,2.09a77.529,77.529,0,0,1,3.74,47.31c-2.07,8.63-5.65,17-5.91,25.9-.39,13.55,6.92,25.93,13.24,37.91a20.172,20.172,0,0,1,2.67,7.31,17.62,17.62,0,0,1-1.43,7.65c-3.57,9.61-9.73,18.53-10.43,28.76a4.65,4.65,0,0,0,.75,3.42,4.3,4.3,0,0,0,2.58,1.16c10.8,1.85,20.14-7.72,25.41-17.33A81.24,81.24,0,0,0,693.36,223c1.09-20.36-6.21-40.39-5.76-60.77C688.12,139.06,698.59,115.73,692.46,93.38Z" transform="translate(-101.886 -43.427)" fill="#3e373a"/>
    <path id="Tracé_1480" data-name="Tracé 1480" d="M581.79,492.73,621.46,494l-5.69-29.42-30.39,2.89Z" transform="translate(-13.306 -0.008)" fill="#c3c7d9"/>
    <path id="Tracé_1481" data-name="Tracé 1481" d="M793.29,466.42c-2.67,3.33-13,9.33-14,11.33s-13.33,8-19.67,9-26.33,5.34-30,7.67c-2.63,1.68-23.74,7-37.61,9.95a106.738,106.738,0,0,1-11.39,2.05c-6,.33-71.66-22-71.66-22l12.66-13,.7-.24c3.58-1.21,20.12-6.8,29.3-9.46,10.34-3,22.34-15.33,22.34-15.33s17.66-6,20-6.67-6-23.33-6-23.33,38.33-5.32,53.33-9.83,49.67-2.84,56,14.83S796,463.09,793.29,466.42Z" transform="translate(-101.886 -43.427)" fill="#4b4b5b"/>
    <path id="Tracé_1482" data-name="Tracé 1482" d="M618.62,522.75s-7.66,8-15.33,7.34-34.49,2-34.49,2a53.769,53.769,0,0,0-13.51,7.83c-6.27,4.94-9.6,1-10.22.16l-.11-.16c-3.34,10.51-11,2.5-11,2.5s3.33-32,2.31-36,6.59-10.87,6.59-10.87l9-2.29,22.8-5.84,32.67,11.33Z" transform="translate(-101.886 -43.427)" fill="#e7c7ca"/>
    <path id="Tracé_1483" data-name="Tracé 1483" d="M551.82,493.26l-6.75,46.82-.11-.16c-3.34,10.51-11,2.5-11,2.5s3.33-32,2.31-36,6.59-10.87,6.59-10.87Z" transform="translate(-101.886 -43.427)" opacity="0.1"/>
    <path id="Tracé_1484" data-name="Tracé 1484" d="M599,360.08s17.66,6,33,0" transform="translate(-101.886 -43.427)" opacity="0.1"/>
    <path id="Tracé_1485" data-name="Tracé 1485" d="M659.29,371.42s7.33,3.66,13,0" transform="translate(-101.886 -43.427)" opacity="0.1"/>
    <path id="Tracé_1486" data-name="Tracé 1486" d="M659.29,380.1s12.33,1.65,14.67-1.68" transform="translate(-101.886 -43.427)" opacity="0.1"/>
    <path id="Tracé_1487" data-name="Tracé 1487" d="M655.29,398.75s23.16-3,28.91-7" transform="translate(-101.886 -43.427)" opacity="0.1"/>
    <path id="Tracé_1488" data-name="Tracé 1488" d="M584.62,391.75s13,7.33,22.67,7" transform="translate(-101.886 -43.427)" opacity="0.1"/>
    <path id="Tracé_1489" data-name="Tracé 1489" d="M692,504.37a106.761,106.761,0,0,1-11.39,2.05c-6,.33-71.66-22-71.66-22l12.66-13,.7-.24c2,1.41,3.64,2.62,4.81,3.54,5.51,4.34,10.83-1.33,12.83-1.33s19.33,14.33,19.33,14.33,16,3.67,18.67,7,12,2.67,13.66,5C692.11,500.44,692.17,502.21,692,504.37Z" transform="translate(-101.886 -43.427)" opacity="0.1"/>
    <path id="Tracé_1490" data-name="Tracé 1490" d="M568.8,417.75s-16.18.93-25.51-3-40.33-13-49.33-6.63-30.67,12-20.67,37.34,14.67,26,14.67,26a36.1,36.1,0,0,1,8,8.3c3,4.67,31,15.33,38,15.33s19.33,0,36.66,12,33,13.34,33,13.34,22,9,28.85,11,38.15,10.66,45.49,8,12-19.34,12-19.34,3.33-15,1.66-17.33-11-1.67-13.66-5-18.67-7-18.67-7S642,476.42,640,476.42s-7.32,5.66-12.83,1.33a292.694,292.694,0,0,0-34.51-22C580,449.08,568.8,417.75,568.8,417.75Z" transform="translate(-101.886 -43.427)" fill="#4b4b5b"/>
    <path id="Tracé_1491" data-name="Tracé 1491" d="M536.27,427.42a19.1,19.1,0,0,1,16.39,4.33c8,6.67,34.92,20.06,34.92,20.06" transform="translate(-101.886 -43.427)" opacity="0.1"/>
    <path id="Tracé_1492" data-name="Tracé 1492" d="M736.29,427s-35.67,5.4-42.33,12.73" transform="translate(-101.886 -43.427)" opacity="0.1"/>
    <path id="Tracé_1493" data-name="Tracé 1493" d="M777.29,537.42h-1.57c-5.64-.2-24.75-.8-28.43,0-4.33,1-61.67,0-61.67,0l11.21-2.33s-4.16-14.58-1.52-15.79c0,0-15-9.88-3.69-16.55s23.5-3.86,23.5-3.86l28.39-9.62,5.45-1.85s32,1.67,40.66,23.67S777.29,537.42,777.29,537.42Z" transform="translate(-101.886 -43.427)" fill="#e7c7ca"/>
    <path id="Tracé_1494" data-name="Tracé 1494" d="M777.29,537.42h-1.57c9.31-7.68,30.37-31.06-32.21-48.1l5.45-1.85s32,1.67,40.66,23.67S777.29,537.42,777.29,537.42Z" transform="translate(-101.886 -43.427)" opacity="0.1"/>
    <circle id="Ellipse_8" data-name="Ellipse 8" cx="1.75" cy="1.75" r="1.75" transform="translate(614.824 464.573)" fill="#4b4b5b"/>
    <circle id="Ellipse_9" data-name="Ellipse 9" cx="1.75" cy="1.75" r="1.75" transform="translate(604.654 467.462)" fill="#4b4b5b"/>
    <g id="Groupe_1" data-name="Groupe 1" transform="translate(-13.306 -0.008)" opacity="0.1">
      <path id="Tracé_1495" data-name="Tracé 1495" d="M658.74,142.83A77.59,77.59,0,0,0,653,110.69c-13,1.94-27.24-8.09-39.08-2.09-8.76,4.44-11.51,15.57-12,25.38-.12,2.59-.14,5.18-.09,7.77,0-.92,0-1.85.09-2.77.46-9.81,3.21-20.94,12-25.38,11.84-6,26.06,4,39.08,2.09a77.382,77.382,0,0,1,5.74,27.14Z" transform="translate(-88.58 -43.42)"/>
      <path id="Tracé_1496" data-name="Tracé 1496" d="M558,141a33.329,33.329,0,0,0-.13-6.54c-1.06-8.8-5.87-17.21-6.74-25.79-1.12,10.35,5.47,20.29,6.74,30.79A6.249,6.249,0,0,1,558,141Z" transform="translate(-88.58 -43.42)"/>
      <path id="Tracé_1497" data-name="Tracé 1497" d="M610.69,230.74c-.62,7.42-2.37,15.35-8,20.27s-16,4.65-19.13-2.09c-1-2-1.15-4.33-2.12-6.33-2.22-4.58-7.68-6.36-12.45-8.15-13.55-5.07-26.62-15-29.53-29.21a30.681,30.681,0,0,1-.53-3.9,31.518,31.518,0,0,0,.53,8.9c2.91,14.17,16,24.14,29.53,29.21,4.77,1.79,10.23,3.57,12.45,8.15,1,2,1.17,4.31,2.12,6.33,3.15,6.74,13.54,7,19.13,2.09s7.33-12.85,8-20.27A114.268,114.268,0,0,0,611,224C611,226.27,610.87,228.51,610.69,230.74Z" transform="translate(-88.58 -43.42)"/>
      <path id="Tracé_1498" data-name="Tracé 1498" d="M687.93,157.49v4.33c.56-18.6,7.38-37.3,6.71-55.51C694.12,123.15,688.31,140.37,687.93,157.49Z" transform="translate(-88.58 -43.42)"/>
      <path id="Tracé_1499" data-name="Tracé 1499" d="M666.47,232.73a12.89,12.89,0,0,0,.23-3.61,20,20,0,0,0-2.67-7.31c-5.78-11-12.37-22.26-13.15-34.47,0,.52-.07,1-.08,1.56-.4,13.54,6.91,25.93,13.23,37.91a24,24,0,0,1,2.44,5.92Z" transform="translate(-88.58 -43.42)"/>
      <path id="Tracé_1500" data-name="Tracé 1500" d="M693.68,218.26a81.371,81.371,0,0,1-10.09,34.52c-5.28,9.61-14.61,19.18-25.42,17.33a4.25,4.25,0,0,1-2.58-1.17,2.5,2.5,0,0,1-.47-.78c-.12.78-.22,1.57-.28,2.37a4.61,4.61,0,0,0,.75,3.41,4.25,4.25,0,0,0,2.58,1.17c10.81,1.85,20.14-7.72,25.42-17.33a81.372,81.372,0,0,0,10.09-34.52c.12-2.34.13-4.67.06-7C693.72,216.93,693.72,217.59,693.68,218.26Z" transform="translate(-88.58 -43.42)"/>
    </g>
    <path id="Tracé_1501" data-name="Tracé 1501" d="M695.31,519.3s25.31,10.62,42-12.88" transform="translate(-101.886 -43.427)" fill="none" stroke="#000" stroke-miterlimit="10" stroke-width="1" opacity="0.1"/>
    <path id="Tracé_1502" data-name="Tracé 1502" d="M700.29,537.86s20.67-13.44,47-.44" transform="translate(-101.886 -43.427)" fill="none" stroke="#000" stroke-miterlimit="10" stroke-width="1" opacity="0.1"/>
    <path id="Tracé_1503" data-name="Tracé 1503" d="M561.93,534.81s8.68-19.58,31.86-4.65" transform="translate(-101.886 -43.427)" fill="none" stroke="#000" stroke-miterlimit="10" stroke-width="1" opacity="0.1"/>
    <path id="Tracé_1504" data-name="Tracé 1504" d="M533.79,245.25l17.7-16s68.63-4.5,71.47,18.83c0,0,24.33-27.66,75.5-21.5l21.65,17.24-59.84,26.26-58.15,20.17-42.83-19.17Z" transform="translate(-101.886 -43.427)" opacity="0.1"/>
    <path id="Tracé_1505" data-name="Tracé 1505" d="M533.79,246.25l17.7-16s68.63-4.5,71.47,18.83c0,0,24.33-27.66,75.5-21.5l21.65,17.24-59.84,26.26-58.15,20.17-42.83-19.17Z" transform="translate(-101.886 -43.427)" fill="#d5d6db"/>
    <path id="Tracé_1506" data-name="Tracé 1506" d="M437.38,204.83l7.83,93.67,83,4.17-3.6-93.27-.07-1.57Z" transform="translate(-13.306 -0.008)" opacity="0.1"/>
    <path id="Tracé_1507" data-name="Tracé 1507" d="M437.38,202.83l7.83,93.67,83,4.17-3.6-93.27-.07-1.57Z" transform="translate(-13.306 -0.008)" fill="#6c63ff"/>
    <path id="Tracé_1508" data-name="Tracé 1508" d="M635.33,202.83l-85.62,12.84v94.09l83.67-12.09Z" transform="translate(-13.306 -0.008)" opacity="0.1"/>
    <path id="Tracé_1509" data-name="Tracé 1509" d="M635.33,200.83l-85.62,12.84v94.09l83.67-12.09Z" transform="translate(-13.306 -0.008)" fill="#6c63ff"/>
    <path id="Tracé_1510" data-name="Tracé 1510" d="M615.14,223.79l-46.25,5.14,1.01,15.76,45.21-4.94Z" transform="translate(-13.306 -0.008)" fill="#fff" opacity="0.3"/>
    <path id="Tracé_1511" data-name="Tracé 1511" d="M538.29,390.08,543,402.75s7,6,14.66,3,14.34-4.49,17.67-7.41,8-17.59,8-17.59,4.67-16,9.33-20,17-59.11,0-53.72-30,55.39-30,55.39-3,3.66-7.33,4-13-.67-14.67,3S533.29,382.75,538.29,390.08Z" transform="translate(-101.886 -43.427)" fill="#be6f72"/>
    <path id="Tracé_1512" data-name="Tracé 1512" d="M638.29,259.08a28.8,28.8,0,0,1-25.11-6.26l3.61,93.26s8.5,9.2,21.5,7.1Z" transform="translate(-101.886 -43.427)" opacity="0.1"/>
    <path id="Tracé_1513" data-name="Tracé 1513" d="M638.29,257.08a28.8,28.8,0,0,1-25.11-6.26l3.61,93.26s8.5,9.2,21.5,7.1Z" transform="translate(-101.886 -43.427)" fill="#6c63ff"/>
    <path id="Tracé_1514" data-name="Tracé 1514" d="M638.29,257.08a28.8,28.8,0,0,1-25.11-6.26l3.61,93.26s8.5,9.2,21.5,7.1Z" transform="translate(-101.886 -43.427)" opacity="0.1"/>
    <path id="Tracé_1515" data-name="Tracé 1515" d="M640.29,246.57s34.83-10.65,43.91-9.15" transform="translate(-101.886 -43.427)" opacity="0.1"/>
    <path id="Tracé_1516" data-name="Tracé 1516" d="M601.33,241.92s-33.76-8-39.4-5.73" transform="translate(-101.886 -43.427)" opacity="0.1"/>
    <path id="Tracé_1517" data-name="Tracé 1517" d="M662.25,247.9s23.29-8.54,31.71-4.48" transform="translate(-101.886 -43.427)" opacity="0.1"/>
    <path id="Tracé_1518" data-name="Tracé 1518" d="M650.52,462.13A76.565,76.565,0,0,1,662,455c6-2.89,17-10.39,17-10.39" transform="translate(-101.886 -43.427)" opacity="0.1"/>
    <path id="Tracé_1519" data-name="Tracé 1519" d="M561.93,360.08s-14.61,11.95-19,13-7.1,10.37-7.1,10.37" transform="translate(-101.886 -43.427)" opacity="0.1"/>
    <path id="Tracé_1520" data-name="Tracé 1520" d="M715.32,388.3,710.66,401s-7,6-14.67,3-14.33-4.49-17.67-7.41-8-17.59-8-17.59-4.66-16-9.33-20-17-59.11,0-53.72,30,55.39,30,55.39,3,3.66,7.33,4,13-.67,14.67,3S720.32,381,715.32,388.3Z" transform="translate(-101.886 -43.427)" fill="#be6f72"/>
    <path id="Tracé_1521" data-name="Tracé 1521" d="M707.15,364.94s9.55,6.14,9.51,13.48" transform="translate(-101.886 -43.427)" opacity="0.1"/>
    <circle id="Ellipse_10" data-name="Ellipse 10" cx="44.67" cy="44.67" r="44.67" transform="translate(479.564 54.192)" fill="#be6f72"/>
    <path id="Tracé_1522" data-name="Tracé 1522" d="M598.07,130.3c5.42-.85,10.17-4,15.35-5.81,11.59-4.07,24.41-1.28,36.14,2.39,4.5,1.41,9.07,3,13.79,3s9.73-1.93,12.14-6c2.22-3.74,1.79-8.6-.08-12.53s-5-7.09-8.16-10.07c-10.4-9.82-23.3-19-37.57-18-5.74.41-11.23,2.46-16.51,4.73a182,182,0,0,0-19.38,9.76c-4.81,2.79-13.72,6.52-16.49,11.62C571,120.88,588.27,131.84,598.07,130.3Z" transform="translate(-101.886 -43.427)" fill="#3e373a"/>
    <path id="Tracé_1523" data-name="Tracé 1523" d="M675.49,119.68c-2.41,4.07-7.42,6-12.14,6s-9.29-1.53-13.8-2.94c-11.73-3.67-24.54-6.47-36.14-2.39-5.17,1.81-9.93,5-15.35,5.8-7.9,1.24-20.62-5.64-22-14.39-1.55,10.11,13.2,18.77,22,17.39,5.42-.85,10.18-4,15.35-5.8,11.6-4.08,24.41-1.28,36.14,2.39,4.51,1.41,9.07,3,13.8,2.94s9.73-1.92,12.14-6a11.71,11.71,0,0,0,1.4-7.31,10.781,10.781,0,0,1-1.4,4.31Z" transform="translate(-101.886 -43.427)" opacity="0.1"/>
    <ellipse id="Ellipse_11" data-name="Ellipse 11" cx="62" cy="9.51" rx="62" ry="9.51" transform="translate(858.444 706.852)" fill="#6c63ff" opacity="0.1"/>
  </g>
</svg>
