<svg xmlns="http://www.w3.org/2000/svg" xmlns:xlink="http://www.w3.org/1999/xlink" version="1.1" x="0px" y="0px" viewBox="0 0 100 125" enable-background="new 0 0 100 100" xml:space="preserve"><g><path fill-rule="evenodd" clip-rule="evenodd" d="M49.475,41.509c3.757-1.825,3.805-5.446,2.706-7.477   c-1.079-1.995-2.711-2.324-2.921-2.129c-0.209,0.195,0.798,1.917,0.139,2.788c-0.661,0.872-2.082,1.025-2.082,1.025   s-0.072-2.88-1.758-3.848c1.591-0.583,6.415-1.296,6.251-4.001c-0.093-2.274-4.548-5.728-5.849-4.541   c-0.698,0.637,1.122,1.184-1.582,2.591c-2.257,1.175-7.027-1.696-15.831-1.252c-8.805,0.444-15.085,2.804-17.627,5.913   C7.245,34.84,9.35,37.626,9.35,37.626s-5.064,1.034-4.264,7.771c0.771,6.494,5.076,13.599,9.812,15.042   c5.729,3.127-5.015,7.562-5.015,7.562s6.246,4.059,9.973,3.632c6.287-0.242,7.19-1.816,7.955-5.132   c0.765-5.353-4.227-8.784-5.232-10.508c-1.007-1.723-1.282-4.347-0.362-4.619c1.082,0.224,5.724,1.75,8.781-1.805   c3.057-3.557-0.527-8.001-0.73-7.941c-0.204,0.061,1.364,3.739-4.302,5.675c-3.077,0.829-9.625,0.098-10.742,4.299   c0.058-2.1,2.915-4.256,6.8-4.573c3.885-0.318,7.765-2.561,7.275-4.854c-0.528-2.482-3.544-3.232-3.544-3.232   s4.603-1.013,7.519-3.125c3.733-2.703,3.896-4.898,3.896-4.898s3.312,2.637,4.992,5.927c2.151,4.221,0.172,7.402,1.127,9.295   c1.062,2.74,5.687,3.751,5.928,3.993c0.369,1.506-1.146,2.228-1.729,3.327c-0.581,1.101-0.018,1.546,0.089,1.512   c0.106-0.033-0.292-0.951,1.153-2.277c1.069-0.98,1.193-2.523,0.946-2.756c-0.276-0.26-5.404-1.791-5.92-3.956   c-0.518-2.163,0.039-5.067,0.039-5.067S45.781,43.3,49.475,41.509z"/><path fill-rule="evenodd" clip-rule="evenodd" d="M37.577,40.738c-1.16,0.345-2.558,2.771-2.379,2.883   c0.18,0.109,2.136-2.159,2.478-2.275c0.342-0.117,1.772,0.512,2.24,0.674c0.469,0.165,2.348,0.817,2.479,0.537   C42.588,42.144,40.008,40.016,37.577,40.738z"/><path fill-rule="evenodd" clip-rule="evenodd" d="M44.088,45.266c-0.449-0.287-2.597,0.45-2.597,0.45l-1.339-0.927l0.885,1.221   c0,0-1.974,1.068-2,1.393c-0.027,0.327,0.347,0.768,1.496,1.16c0.746,0.255,1.277,0.072,1.312-0.076   c0.036-0.146-0.505-0.257-0.548-0.651c-0.046-0.395,1.217-0.903,1.646-1.215C43.376,46.308,44.362,45.441,44.088,45.266z"/><path fill-rule="evenodd" clip-rule="evenodd" d="M46.886,62.555c-0.151,0.052,0.293,1.13-0.187,1.636   c-0.478,0.508-2.584,1.551-5.384,1.289c-2.802-0.263-6.08-1.598-6.132-1.428c-0.129,0.443,3.346,1.911,6.144,1.986   c2.797,0.076,5.019-0.744,5.615-1.513C47.538,63.758,47.038,62.502,46.886,62.555z"/><path d="M35.192,72.994c1.352-0.215,8.712-0.873,9.667-1.107c0.341-0.082,2.413-0.673,3.188-1.117l0.251-0.146   l0.007,0.011l5.021-3.049c0.406-0.265,1.031-0.668,1.241-0.936c0.327-0.365,0.409-0.764,0.239-1.107   c-0.18-0.359-0.575-0.562-0.943-0.481c-0.249,0.068-0.511,0.238-0.943,0.519c-0.188,0.122-0.405,0.262-0.661,0.42   c-0.634,0.394-1.95,0.973-2.222,1.126s-0.662-0.077-0.348-0.283c0.314-0.208,5.477-3.612,5.477-3.612   c0.417-0.268,1.059-0.678,1.276-0.944c0.335-0.361,0.428-0.748,0.265-1.073c-0.17-0.343-0.563-0.526-0.937-0.441   c-0.255,0.072-0.523,0.244-0.966,0.528c-0.191,0.124-0.412,0.265-0.672,0.423c-1.592,0.972-3.434,1.831-3.778,1.996   c-0.346,0.164-0.495-0.311-0.178-0.496c0.317-0.185,5.438-3.209,5.438-3.209c0.188-0.125,0.408-0.257,0.621-0.386   c0.41-0.246,0.834-0.499,0.97-0.684c0.379-0.45,0.457-0.963,0.229-1.424c-0.238-0.479-0.733-0.762-1.18-0.676   c-0.29,0.074-0.588,0.271-1.081,0.599c-0.213,0.141-0.455,0.303-0.745,0.484c-1.703,1.068-4.792,2.58-5.418,2.857   c-0.627,0.276-0.762-0.107-0.442-0.301c0.32-0.192,4.205-2.553,4.205-2.553c0.482-0.32,1.164-0.773,1.397-1.091   c0.063-0.077,0.106-0.138,0.146-0.199l0.028-0.046c0.03-0.053,0.055-0.103,0.077-0.15l0.017-0.039   c0.02-0.051,0.038-0.103,0.052-0.154l0.009-0.04c0.013-0.073,0.021-0.115,0.023-0.155l0.003-0.062c0-0.039,0-0.074-0.001-0.111   l-0.005-0.062c-0.006-0.04-0.014-0.08-0.021-0.119l-0.012-0.05c-0.01-0.019-0.019-0.037-0.029-0.055l-0.022-0.034   c-0.028-0.045-0.049-0.076-0.071-0.104l-0.039-0.05c-0.021-0.027-0.048-0.056-0.074-0.083l-0.038-0.037   c-0.032-0.031-0.067-0.058-0.101-0.084c-0.068-0.052-0.114-0.079-0.161-0.104l-0.036-0.016c-0.034-0.018-0.069-0.033-0.104-0.046   l-0.05-0.017c-0.033-0.011-0.065-0.02-0.097-0.025l-0.056-0.009c-0.031-0.006-0.065-0.008-0.098-0.009l-0.05-0.002   c-0.045,0.002-0.095,0.004-0.142,0.015L53.2,55.02c-0.213,0.051-0.213,0.051-0.563,0.275c-0.116,0.075-0.268,0.172-0.468,0.298   c-0.37,0.231-0.775,0.475-1.196,0.721c-0.337,0.196-0.684,0.394-1.03,0.588c-0.627,0.351-1.316,0.727-1.995,1.083   c-0.457,0.241-0.867,0.454-1.195,0.62l-0.158,0.078c-0.542,0.271-0.645,0.308-0.688,0.316c-0.395,0.199-3.478,1.734-4.449,1.947   l-1.119,0.244c0,0,2.438-3.185,2.474-3.224c0.265-0.344,0.337-0.869,0.018-1.245c-0.321-0.376-1.111-0.199-1.168-0.175   c-0.31,0.104-2.083,2.619-2.948,3.243c-0.857,0.606-3.733,4.962-4.481,5.828l-1.752,1.602L35.192,72.994z"/><g><circle fill="none" cx="79.406" cy="49.144" r="0.396"/><path d="M79.984,44.352c-2.577,0.849-3.797,2.838-4.019,2.578c-0.545-0.22,0.313-2.801,3.983-3.568    c2.051-0.517,4.06,1.636,3.82,1.763C83.529,45.252,81.857,43.397,79.984,44.352z"/><path d="M78.787,50.691c0.707,0.056,1.327-0.473,1.384-1.178c0.034-0.435-0.151-0.837-0.465-1.095    c0.724-0.017,1.417-0.076,2.307,0.078c-0.374,0.671-0.937,1.862-1.839,2.355c1.474-0.406,2.945-2.913,2.777-3.263    c-0.17-0.351-1.954-0.735-3.82-0.243c-1.825,0.48-2.695,1.497-3.328,2.879c0.421-0.48,1.178-1.124,1.97-1.448    c-0.089,0.157-0.149,0.338-0.164,0.531C77.552,50.014,78.081,50.634,78.787,50.691z M78.989,49.112    c0.018-0.217,0.21-0.381,0.428-0.362c0.218,0.018,0.381,0.208,0.362,0.427c-0.017,0.218-0.207,0.381-0.427,0.363    C79.135,49.522,78.972,49.331,78.989,49.112z"/><circle fill="none" cx="67.371" cy="49.144" r="0.396"/><path d="M66.793,44.352c2.577,0.849,3.798,2.838,4.02,2.578c0.544-0.22-0.314-2.801-3.984-3.568    c-2.049-0.517-4.06,1.636-3.82,1.763C63.248,45.252,64.921,43.397,66.793,44.352z"/><path d="M69.169,49.308c-0.015-0.193-0.074-0.374-0.164-0.531c0.792,0.324,1.55,0.968,1.97,1.448    c-0.633-1.382-1.502-2.398-3.327-2.879c-1.866-0.492-3.651-0.107-3.82,0.243c-0.169,0.35,1.305,2.856,2.776,3.263    c-0.902-0.493-1.464-1.685-1.839-2.355c0.891-0.154,1.583-0.095,2.308-0.078c-0.314,0.258-0.499,0.66-0.465,1.095    c0.057,0.705,0.676,1.233,1.383,1.178C68.696,50.634,69.226,50.014,69.169,49.308z M67.425,49.54    c-0.22,0.018-0.409-0.146-0.427-0.363c-0.018-0.219,0.145-0.409,0.363-0.427c0.219-0.019,0.411,0.146,0.427,0.362    C67.806,49.331,67.643,49.522,67.425,49.54z"/><circle fill="none" cx="68.415" cy="49.144" r="0.396"/><path d="M94.89,70.983c-0.632-0.337-5.468,1.726-8.228-2.522c-1.842-3.344-0.748-6.716,1.814-11.527    C91.039,52.121,92,50.416,92,46.333c0-4.081-2.161-22.842-18.018-22.842c-15.854,0-18.335,17.627-18.335,22.842    c0,8.48,7.418,13.971,5.685,20.552c-1.418,5.372-8.453,1.787-12.73,6.262c-4.425,4.629,3.253-0.396,8.554,1.496    s9.117,0.463,10.217-2.146s1.439-7.919,1.439-7.919s-2.354-1.364-4.197-4.382c-1.842-3.02-2.662-6.103-2.662-6.103    s-2.228-1.391-2.796-4.357c-0.638-3.331,1.936-3.237,1.936-3.237s0.517-6.987,7.965-8.212c7.446-1.224,7.729-0.875,12.054-3.539    c4.163,2.284,5.205,11.582,5.205,11.582s2.305-0.224,1.955,2.937c-0.508,4.587-2.783,4.827-2.783,4.827s-0.935,5.041-2.776,6.592    c-1.84,1.55-4.884,4.403-4.884,4.403s0.067,6.2,1.96,8.131c1.892,1.931,3.492,3.736,8.581,3.694    C93.458,76.872,95.52,71.319,94.89,70.983z"/><path d="M68.816,59.445c0.095,0.08,0.871,1.258,1.485,1.828c0.59,0.55,1.577,1.782,3.058,1.782c1.481,0,2.468-1.232,3.059-1.782    c0.614-0.57,1.391-1.748,1.485-1.828c0,0-0.829-0.089-1.515-0.605c-0.686-0.516-1.146-1.076-1.684-1.058    c-0.624,0.019-1.176,0.364-1.346,0.364s-0.721-0.346-1.345-0.364c-0.537-0.019-0.997,0.542-1.684,1.058    C69.645,59.356,68.816,59.445,68.816,59.445z M70.382,59.736c0.547-0.063,1.343-0.151,1.736-0.117    c0.398,0.028,0.954,0.206,1.241,0.206s0.844-0.178,1.242-0.206c0.394-0.034,1.189,0.054,1.736,0.117    c-1.448,0.823-2.02,1.588-2.979,1.588S71.83,60.559,70.382,59.736z"/><path d="M73.65,67.3c-3.385-0.067-5.468-2.985-5.814-3.001c-0.348-0.017,0.561,0.007,0.976,0.278    c0.416,0.271,2.005,2.303,4.839,2.303c2.835,0,3.73-1.375,4.177-1.792s0.909-0.08,0.909-0.08S76.706,67.3,73.65,67.3z"/></g><g><g><path fill-rule="evenodd" clip-rule="evenodd" d="M47.893,55.329c0,0-0.952,0.077-2.195,1.307     c-0.79,0.812-1.863,1.371-1.955,1.547c-0.062,0.119,0.053,0.558,0.356,0.991c0.298-0.119,0.594-0.238,0.844-0.338     c0.605-0.243,1.048-0.539,1.359-0.675c-0.004-0.004-0.015-0.016-0.015-0.016s1.059-0.275,1.581-1.004     C48.392,56.413,47.893,55.329,47.893,55.329z"/></g></g></g><text x="0" y="115" fill="#000000" font-size="5px" font-weight="bold" font-family="'Helvetica Neue', Helvetica, Arial-Unicode, Arial, Sans-serif">Created by Nataliia Lytvyn</text><text x="0" y="120" fill="#000000" font-size="5px" font-weight="bold" font-family="'Helvetica Neue', Helvetica, Arial-Unicode, Arial, Sans-serif">from the Noun Project</text></svg>