<?xml version="1.0" standalone="no"?>
<!DOCTYPE svg PUBLIC "-//W3C//DTD SVG 20010904//EN"
 "http://www.w3.org/TR/2001/REC-SVG-20010904/DTD/svg10.dtd">
<svg version="1.0" xmlns="http://www.w3.org/2000/svg"
 width="1280.000000pt" height="1125.000000pt" viewBox="0 0 1280.000000 1125.000000"
 preserveAspectRatio="xMidYMid meet">
<metadata>
Created by potrace 1.15, written by Peter Selinger 2001-2017
</metadata>
<g transform="translate(0.000000,1125.000000) scale(0.100000,-0.100000)"
fill="#000000" stroke="none">
<path d="M6085 11243 c-548 -25 -1057 -104 -1545 -239 -1021 -283 -1906 -725
-2537 -1268 -885 -762 -1542 -1983 -1767 -3286 -167 -964 -100 -2045 189
-3050 114 -396 215 -624 400 -905 105 -160 204 -284 335 -419 147 -152 270
-254 445 -371 251 -168 456 -273 985 -508 168 -74 438 -197 600 -272 1005
-468 1341 -603 1823 -736 901 -247 2081 -250 3007 -8 820 215 1607 607 2225
1110 760 618 1384 1547 1764 2628 273 776 396 1627 351 2417 -25 422 -90 833
-185 1167 l-34 117 -6 343 c-6 308 -4 381 19 729 42 622 74 830 167 1094 50
143 83 195 200 317 154 159 191 238 230 492 11 72 26 155 34 186 32 123 7 176
-90 197 -141 30 -252 -50 -432 -312 -183 -267 -208 -301 -278 -371 -95 -96
-164 -130 -262 -130 -62 1 -81 6 -139 35 -103 53 -108 64 -115 238 -7 189 -27
232 -107 232 -42 0 -74 -30 -116 -109 -31 -60 -37 -83 -47 -178 -23 -236 -62
-266 -364 -278 -102 -4 -195 -14 -256 -27 l-96 -21 -94 68 c-165 118 -488 303
-739 423 -867 413 -1780 635 -2835 692 -170 9 -571 11 -730 3z"/>
</g>
</svg>
