<?xml version="1.0" encoding="UTF-8"?>
<!DOCTYPE svg PUBLIC "-//W3C//DTD SVG 1.1//EN" "http://www.w3.org/Graphics/SVG/1.1/DTD/svg11.dtd">
<!-- Creator: CorelDRAW X6 -->
<svg xmlns="http://www.w3.org/2000/svg" xml:space="preserve" width="100%" height="7.11111in" version="1.1" style="shape-rendering:geometricPrecision; text-rendering:geometricPrecision; image-rendering:optimizeQuality; fill-rule:evenodd; clip-rule:evenodd"
viewBox="0 0 7111 7111"
 xmlns:xlink="http://www.w3.org/1999/xlink">
 <defs>
  <style type="text/css">
   <![CDATA[
    .fil5 {fill:#3C4857;fill-rule:nonzero}
    .fil2 {fill:#415466;fill-rule:nonzero}
    .fil1 {fill:#B9C9D9;fill-rule:nonzero}
    .fil0 {fill:#D1DCE6;fill-rule:nonzero}
    .fil4 {fill:#F15D4C;fill-rule:nonzero}
    .fil3 {fill:#F27461;fill-rule:nonzero}
   ]]>
  </style>
 </defs>
 <g id="Layer_x0020_1">
  <metadata id="CorelCorpID_0Corel-Layer"/>
  <path class="fil0" d="M3556 0c1964,0 3556,1592 3556,3556 0,1964 -1592,3556 -3556,3556 -1964,0 -3556,-1592 -3556,-3556 0,-1964 1592,-3556 3556,-3556z"/>
  <path class="fil1" d="M7091 3931l-2351 -2351 -2231 1696 -1402 807 1374 1360 -423 315 1357 1350c46,2 93,3 139,3 1837,0 3348,-1393 3536,-3180z"/>
  <path class="fil2" d="M2634 5847l-369 0c-160,0 -290,-130 -290,-290l0 -1607 948 0 0 1607c0,160 -130,290 -290,290z"/>
  <polygon class="fil3" points="3951,5136 4741,5136 4741,1580 3951,1580 "/>
  <polygon class="fil4" points="3951,5136 4741,5136 4741,3340 3951,3340 "/>
  <path class="fil2" d="M3951 5136c0,0 -255,-790 -1185,-790l-988 0c-546,0 -988,-442 -988,-988l0 0c0,-545 442,-988 988,-988l988 0c930,0 1185,-790 1185,-790l0 3556z"/>
  <path class="fil5" d="M791 3340c0,6 0,12 0,18l0 0c0,545 442,988 988,988l988 0c930,0 1185,790 1185,790l0 -1796 -3160 0z"/>
  <path class="fil3" d="M790 3358l0 0c0,541 435,980 974,987l0 -1975c-539,7 -974,447 -974,987z"/>
  <path class="fil4" d="M791 3340c0,6 0,12 0,18l0 0c0,541 435,980 974,987l0 -1005 -973 0z"/>
  <path class="fil5" d="M5531 3478l-395 0c-66,0 -120,-54 -120,-120 0,-66 54,-120 120,-120l395 0c66,0 120,54 120,120 0,66 -54,120 -120,120z"/>
  <path class="fil5" d="M5136 2885c-37,0 -73,-17 -97,-49 -39,-53 -27,-128 26,-167l263 -192c53,-39 128,-27 167,26 39,53 27,128 -26,167l-263 192c-21,15 -46,23 -70,23z"/>
  <path class="fil5" d="M5375 4226c-22,0 -45,-6 -65,-19l-239 -156c-55,-36 -71,-110 -35,-166 36,-55 110,-71 166,-35l239 156c55,36 71,110 35,166 -23,35 -61,55 -100,55z"/>
 </g>
</svg>
