<?xml version="1.0" standalone="no"?>
<!DOCTYPE svg PUBLIC "-//W3C//DTD SVG 20010904//EN"
 "http://www.w3.org/TR/2001/REC-SVG-20010904/DTD/svg10.dtd">
<svg version="1.0" xmlns="http://www.w3.org/2000/svg"
 width="1280.000000pt" height="1207.000000pt" viewBox="0 0 1280.000000 1207.000000"
 preserveAspectRatio="xMidYMid meet">
<metadata>
Created by potrace 1.15, written by Peter Selinger 2001-2017
</metadata>
<g transform="translate(0.000000,1207.000000) scale(0.100000,-0.100000)"
fill="#000000" stroke="none">
<path d="M5670 11389 c-763 -48 -1438 -209 -2022 -485 -270 -127 -530 -285
-735 -445 l-63 -49 -101 56 c-155 86 -373 189 -474 224 -235 82 -762 193 -915
193 -105 0 -176 -14 -305 -63 -222 -83 -489 -236 -599 -344 -86 -83 -118 -162
-136 -331 -33 -307 -33 -307 -87 -356 -15 -14 -52 -39 -81 -55 -37 -19 -61
-41 -78 -69 -51 -88 -88 -316 -65 -400 7 -29 28 -58 70 -98 75 -71 92 -101
186 -322 93 -218 155 -343 202 -408 19 -26 107 -113 195 -194 223 -204 237
-224 357 -526 38 -95 77 -190 86 -212 30 -70 99 -167 197 -278 l95 -108 7
-102 c4 -56 13 -144 20 -195 11 -76 11 -101 0 -130 -14 -44 -9 -83 16 -110 15
-16 16 -25 7 -60 -7 -28 -8 -54 -1 -84 10 -41 8 -46 -17 -70 -64 -64 -31 -167
62 -194 27 -8 36 -17 45 -49 11 -38 10 -42 -22 -78 -61 -67 -39 -142 51 -182
50 -23 54 -27 69 -79 20 -69 21 -62 -14 -98 -24 -24 -30 -38 -30 -72 0 -54 25
-88 89 -121 48 -24 48 -24 75 -119 21 -74 25 -100 16 -116 -28 -52 -6 -129 44
-151 29 -14 55 -104 49 -167 -4 -35 0 -48 23 -80 16 -20 39 -71 51 -112 22
-75 22 -75 2 -96 -61 -65 -33 -165 54 -193 31 -10 36 -17 42 -52 4 -25 3 -45
-5 -54 -30 -36 -7 -119 43 -151 25 -16 36 -33 45 -71 12 -46 11 -53 -7 -84
-40 -65 -15 -146 53 -170 44 -16 56 -52 27 -83 -62 -66 -40 -151 50 -197 24
-12 41 -29 48 -50 15 -44 14 -56 -10 -88 -43 -58 -19 -136 51 -167 37 -17 61
-55 39 -63 -26 -8 -68 -58 -73 -86 -10 -51 20 -95 94 -135 53 -29 67 -42 76
-70 10 -30 9 -38 -10 -63 -25 -34 -27 -94 -4 -129 9 -14 33 -33 52 -42 38 -18
45 -36 22 -55 -22 -18 -29 -67 -16 -106 8 -25 24 -43 55 -60 48 -29 64 -61 34
-70 -30 -10 -69 -64 -69 -96 0 -51 27 -88 83 -115 29 -13 58 -24 65 -24 23 0
12 -19 -22 -35 -21 -10 -41 -31 -51 -52 -32 -68 1 -130 88 -164 40 -16 42 -18
43 -61 3 -88 23 -101 314 -211 212 -80 369 -128 514 -157 153 -32 349 -24 556
20 214 45 214 45 252 22 44 -27 296 -113 477 -162 318 -88 489 -101 717 -55
136 27 295 69 415 110 99 34 172 33 281 -4 104 -35 332 -94 448 -116 230 -43
478 -5 922 142 109 35 213 75 232 88 l34 23 74 -18 c203 -52 298 -65 478 -65
195 0 258 12 517 96 148 48 445 163 481 187 33 21 54 75 47 116 -6 30 -4 33
34 50 58 27 83 58 85 104 1 50 -19 88 -56 104 -32 15 -36 26 -10 35 110 37
152 76 152 142 0 33 -51 101 -76 101 -23 0 -16 29 12 55 15 14 30 25 34 25 4
0 15 16 24 35 17 35 14 99 -5 111 -22 13 -8 43 25 54 79 26 107 106 61 174
-21 31 -25 46 -20 73 5 28 15 38 64 62 65 33 78 46 91 91 12 41 -8 92 -45 116
-37 24 -30 54 19 71 50 17 66 31 82 69 17 39 5 87 -31 124 -23 24 -24 29 -13
64 9 28 21 42 49 56 81 42 106 128 54 185 -35 37 -24 72 29 90 51 18 74 41 82
81 8 46 -2 81 -33 111 -24 25 -25 29 -13 67 8 25 29 56 56 82 39 36 44 45 44
84 0 25 -6 51 -16 61 -11 12 -13 25 -7 49 7 27 16 34 62 50 59 20 87 48 97 96
7 38 -14 84 -52 111 l-27 20 19 69 c10 38 28 78 40 89 41 39 56 94 35 133 -5
11 -3 34 5 62 12 38 21 48 57 65 76 36 94 120 37 180 l-20 21 23 79 23 80 55
27 c31 14 66 39 78 54 39 49 19 138 -36 163 -16 8 -23 17 -19 29 2 9 10 35 16
57 11 38 16 42 69 57 31 10 69 27 84 38 28 23 43 74 33 115 -8 30 -54 75 -78
75 -26 0 -27 10 -9 68 15 48 20 55 67 76 63 29 84 57 84 115 0 36 -5 49 -33
75 l-33 31 13 55 c7 30 11 61 8 67 -2 7 12 20 31 29 86 41 85 164 -3 200 -37
16 -38 19 -20 119 l13 70 295 395 c163 217 428 562 590 765 496 625 619 796
619 861 0 37 -19 56 -82 83 -75 32 -74 36 89 223 177 203 196 251 127 328 -53
59 -166 111 -251 117 -64 5 -71 3 -116 -27 -26 -18 -80 -70 -119 -116 -39 -45
-76 -85 -84 -88 -7 -3 -48 18 -91 46 -105 68 -127 74 -152 40 -36 -53 -155
-268 -511 -933 -199 -371 -366 -678 -371 -683 -6 -6 -9 -6 -9 0 0 5 -4 26 -9
46 -10 44 -28 5 486 1058 302 619 377 777 388 823 8 32 -11 46 -115 82 -110
39 -108 37 -82 147 48 198 41 249 -41 325 -98 89 -228 134 -294 100 -38 -20
-64 -80 -99 -224 -52 -213 -66 -262 -83 -277 -15 -14 -21 -13 -61 14 -55 37
-98 39 -129 7 -42 -46 -115 -260 -253 -749 -51 -180 -96 -328 -99 -328 -3 0
-19 24 -34 53 -45 81 -206 318 -298 435 -380 487 -883 914 -1449 1231 -581
325 -1185 529 -1838 621 -260 37 -717 50 -1040 29z m810 -549 c543 -55 1063
-205 1571 -454 815 -398 1485 -1025 1860 -1741 83 -157 179 -387 179 -427 0
-8 -39 -136 -86 -284 -47 -148 -152 -478 -234 -734 -130 -409 -150 -465 -169
-468 -16 -3 -21 2 -21 20 0 49 -43 186 -86 275 -37 78 -53 99 -97 133 -82 61
-152 83 -277 84 l-106 1 -104 -62 c-82 -50 -113 -63 -145 -63 -64 0 -112 17
-119 43 -10 39 -6 114 7 124 6 6 42 20 79 32 37 12 78 31 93 42 48 38 48 50
11 158 -61 174 -73 187 -164 178 -61 -6 -179 -59 -230 -102 -74 -62 -128 -232
-125 -392 l3 -102 -48 22 c-40 18 -63 21 -154 20 -97 -2 -115 1 -190 28 -46
17 -121 41 -168 53 l-85 23 -18 49 c-9 27 -25 69 -34 93 -22 61 -126 213 -172
253 l-39 33 40 70 c22 39 83 169 135 290 113 265 129 293 205 364 64 61 78 93
78 181 0 80 -35 235 -67 299 -24 48 -37 61 -88 89 -77 41 -120 90 -134 150 -6
26 -16 106 -22 177 -24 295 -73 382 -294 530 -163 109 -421 229 -580 270 -118
31 -244 25 -495 -24 -410 -81 -627 -148 -865 -268 -291 -146 -442 -239 -696
-427 -135 -99 -136 -101 -265 -274 -149 -201 -255 -357 -281 -412 -19 -41 -33
-51 -33 -25 0 29 -40 94 -74 121 -19 15 -60 37 -92 48 -39 14 -63 30 -73 46
-13 24 -11 32 23 100 31 64 36 83 36 146 0 158 -40 274 -151 445 -110 168
-338 472 -371 496 l-28 19 60 42 c671 474 1693 744 2750 727 135 -3 292 -9
350 -15z m807 -3496 c28 -18 41 -41 49 -90 6 -39 5 -40 -40 -62 -26 -12 -62
-22 -81 -22 -28 0 -219 46 -234 57 -6 4 29 53 71 99 l38 42 88 -5 c48 -3 97
-11 109 -19z"/>
</g>
</svg>
