<svg xmlns="http://www.w3.org/2000/svg" fill="white" xmlns:xlink="http://www.w3.org/1999/xlink" version="1.1" x="0px" y="0px" viewBox="0 0 512 640" enable-background="new 0 0 512 512" xml:space="preserve"><g><path d="M176.71,378.36c-7.901-5.157-17.038-7.883-26.422-7.883c-16.369,0-31.458,8.161-40.366,21.835   c-6.982,10.743-9.355,23.576-6.681,36.133c2.69,12.635,10.159,23.472,21.011,30.503c7.924,5.172,17.084,7.906,26.49,7.906   c16.349,0,31.41-8.142,40.291-21.781C205.482,422.854,199.055,392.925,176.71,378.36z M180.975,438.529   c-6.656,10.223-17.958,16.325-30.232,16.325c-7.07,0-13.962-2.06-19.948-5.966c-8.177-5.298-13.794-13.446-15.816-22.942   c-2.006-9.419-0.228-19.041,5.002-27.089c6.681-10.257,18.011-16.38,30.308-16.38c7.049,0,13.918,2.052,19.867,5.934   C186.965,399.369,191.818,421.853,180.975,438.529z"/><path d="M445.939,81.384L339.083,11.801c-1.335-0.869-2.957-1.171-4.517-0.842c-1.558,0.33-2.92,1.265-3.788,2.599L275.33,98.822   c-3.076-1.151-6.345-1.749-9.673-1.749c-9.461,0-18.166,4.723-23.274,12.622L79.009,360.802   c-27.521,42.264-15.518,99.048,26.759,126.582c14.811,9.643,31.995,14.74,49.694,14.74c31.212,0,59.946-15.507,76.865-41.484   l163.377-251.167c7.201-11.087,5.437-25.457-3.461-34.527l55.451-85.263C449.501,86.907,448.715,83.192,445.939,81.384z    M385.644,202.934L222.27,454.094c-14.694,22.561-39.669,36.03-66.808,36.03c-15.369,0-30.289-4.425-43.146-12.796   c-36.731-23.924-47.162-73.259-23.25-109.979L252.45,116.226c2.897-4.479,7.834-7.152,13.207-7.152   c3.032,0,5.978,0.874,8.518,2.525l106.856,69.578C388.296,185.904,390.363,195.666,385.644,202.934z M382.548,167.844   l-50.716-33.022l-46.085-30.008l51.818-79.681l96.801,63.035L382.548,167.844z"/><path d="M322.36,63.346c-1.558,0.329-2.921,1.263-3.789,2.598l-13.277,20.399c-0.869,1.334-1.172,2.959-0.841,4.517   c0.33,1.558,1.266,2.92,2.601,3.788l31.855,20.693c1.01,0.656,2.143,0.969,3.263,0.969c1.96,0,3.881-0.959,5.031-2.723   l13.264-20.335c0.869-1.333,1.174-2.957,0.846-4.514c-0.328-1.558-1.261-2.921-2.595-3.79L326.876,64.19   C325.542,63.321,323.916,63.019,322.36,63.346z M340.424,102.015l-21.797-14.159l6.726-10.334l21.784,14.201L340.424,102.015z"/><path d="M352.563,124.264l31.843,20.764c0.982,0.641,2.122,0.974,3.277,0.974c0.413,0,0.829-0.042,1.239-0.129   c1.558-0.329,2.922-1.264,3.79-2.598l13.271-20.395c1.806-2.776,1.021-6.49-1.753-8.299l-31.849-20.762   c-1.335-0.87-2.96-1.171-4.517-0.844c-1.558,0.329-2.921,1.264-3.789,2.599l-13.265,20.393   C349.006,118.742,349.79,122.455,352.563,124.264z M370.86,107.151l21.795,14.208l-6.726,10.336l-21.791-14.21L370.86,107.151z"/></g></svg>
